<svg width="183" height="31" viewBox="0 0 183 31" fill="none" xmlns="http://www.w3.org/2000/svg">
<path d="M5.94156 13.8396H24.0708V2.16537H29.2337V30.7333H24.0708V19.0591H5.94156V30.7333H0.778809V2.16537H5.94156V13.8396ZM56.7551 23.6013C56.7551 24.3185 56.6292 25.0955 56.3778 25.9321C56.1263 26.7556 55.7158 27.526 55.1467 28.2432C54.5907 28.947 53.856 29.5381 52.9426 30.0162C52.0425 30.4942 50.9436 30.7333 49.6463 30.7333H40.3334C39.6186 30.7333 38.8443 30.6071 38.0102 30.3548C37.1894 30.1025 36.4217 29.6975 35.7069 29.1396C35.0052 28.5684 34.4162 27.8313 33.9397 26.9283C33.463 26.0119 33.2249 24.9028 33.2249 23.6013C33.2249 22.8841 33.3505 22.1071 33.6019 21.2705C33.8536 20.4337 34.2574 19.6634 34.8134 18.9595C35.3825 18.2423 36.1172 17.6447 37.0175 17.1666C37.9309 16.6884 39.0361 16.4494 40.3334 16.4494H49.6463V21.39H40.3334C39.6319 21.39 39.0892 21.6091 38.7052 22.0475C38.3213 22.4725 38.1295 23.0036 38.1295 23.6412C38.1295 24.3185 38.3477 24.8498 38.7847 25.2349C39.2347 25.6068 39.7643 25.7927 40.3732 25.7927H49.6463C50.348 25.7927 50.8907 25.5803 51.2745 25.1553C51.6584 24.7303 51.8504 24.199 51.8504 23.5614V16.3298C51.8504 15.6525 51.6385 15.1146 51.2149 14.7161C50.8046 14.3177 50.2818 14.1185 49.6463 14.1185H38.3082V9.19779H49.6463C50.3611 9.19779 51.1291 9.32398 51.9496 9.57632C52.7837 9.82865 53.5514 10.2404 54.2532 10.8115C54.968 11.3693 55.5638 12.1064 56.0402 13.0228C56.5167 13.9259 56.7551 15.0283 56.7551 16.3298V23.6013ZM88.5259 8.37749H68.3315C67.63 8.37749 67.1004 8.55678 66.743 8.91537C66.3856 9.26069 66.2069 9.77201 66.2069 10.4494V30.7333H61.044V10.4494C61.044 9.55951 61.1565 8.76264 61.3816 8.05873C61.6068 7.35484 61.9046 6.73726 62.2753 6.206C62.6592 5.66148 63.0959 5.20327 63.5857 4.8314C64.0755 4.44623 64.5852 4.13413 65.1148 3.89507C65.6574 3.656 66.2003 3.48335 66.743 3.37709C67.299 3.25757 67.8153 3.19779 68.2917 3.19779H88.5259V8.37749ZM112.978 0.197792C112.396 2.01734 107.714 12.8103 106.933 14.5767C106.152 16.3431 105.252 18.0298 104.232 19.6369C103.226 21.2306 102.095 22.7114 100.837 24.0795C99.5927 25.4341 98.2093 26.6096 96.687 27.6056C95.1778 28.5884 93.5297 29.3654 91.7426 29.9364C89.9689 30.4942 88.0426 30.7732 85.9643 30.7732C85.6069 30.7732 85.2694 30.7068 84.9517 30.574C84.6339 30.4412 84.356 30.2619 84.1176 30.0361C83.8795 29.797 83.694 29.5248 83.5616 29.2192C83.4292 28.9005 83.363 28.5619 83.363 28.2033V8.37749H88.5259V25.3942C89.7834 25.3942 90.988 25.122 92.1398 24.5775C93.3047 24.0329 94.4036 23.3157 95.4361 22.426C96.4685 21.5228 97.4217 20.5001 98.2954 19.358C99.1824 18.2158 99.9699 17.047 100.658 15.8517C101.347 14.6431 101.929 13.4611 102.406 12.3056C102.895 11.1501 107.26 1.11421 107.498 0.197792H112.978ZM132.33 23.6013C132.33 24.3185 132.204 25.0955 131.953 25.9321C131.701 26.7556 131.291 27.526 130.722 28.2432C130.166 28.947 129.431 29.5381 128.517 30.0162C127.617 30.4942 126.518 30.7333 125.221 30.7333H115.908C115.194 30.7333 114.419 30.6071 113.585 30.3548C112.764 30.1025 111.997 29.6975 111.282 29.1396C110.58 28.5684 109.991 27.8313 109.514 26.9283C109.038 26.0119 108.8 24.9028 108.8 23.6013C108.8 22.8841 108.925 22.1071 109.177 21.2705C109.428 20.4337 109.832 19.6634 110.388 18.9595C110.957 18.2423 111.692 17.6447 112.592 17.1666C113.506 16.6884 114.611 16.4494 115.908 16.4494H125.221V21.39H115.908C115.207 21.39 114.664 21.6091 114.28 22.0475C113.896 22.4725 113.704 23.0036 113.704 23.6412C113.704 24.3185 113.923 24.8498 114.36 25.2349C114.81 25.6068 115.339 25.7927 115.948 25.7927H125.221C125.923 25.7927 126.466 25.5803 126.849 25.1553C127.233 24.7303 127.425 24.199 127.425 23.5614V16.3298C127.425 15.6525 127.213 15.1146 126.79 14.7161C126.38 14.3177 125.857 14.1185 125.221 14.1185H113.883V9.19779H125.221C125.936 9.19779 126.704 9.32398 127.525 9.57632C128.359 9.82865 129.126 10.2404 129.828 10.8115C130.543 11.3693 131.138 12.1064 131.615 13.0228C132.092 13.9259 132.33 15.0283 132.33 16.3298V23.6013ZM155.523 14.3775H143.906C143.205 14.3775 142.675 14.5568 142.318 14.9154C141.961 15.2607 141.782 15.772 141.782 16.4494V30.7333H136.619V16.4494C136.619 15.5595 136.731 14.7626 136.956 14.0587C137.182 13.3548 137.48 12.7373 137.85 12.206C138.234 11.6615 138.671 11.2033 139.161 10.8314C139.65 10.4462 140.16 10.1341 140.69 9.89507C141.232 9.656 141.775 9.48335 142.318 9.37709C142.874 9.25757 143.39 9.19779 143.867 9.19779H155.523V14.3775ZM182.409 23.4619C182.409 24.3518 182.296 25.1553 182.071 25.8725C181.846 26.5763 181.548 27.2005 181.178 27.745C180.807 28.2763 180.377 28.7346 179.887 29.1197C179.397 29.4914 178.881 29.797 178.338 30.0361C177.808 30.2753 177.266 30.4545 176.71 30.574C176.167 30.6803 175.651 30.7333 175.161 30.7333H165.848C164.961 30.7333 164.167 30.6205 163.465 30.3947C162.764 30.1689 162.142 29.87 161.599 29.4982C161.069 29.1131 160.613 28.6748 160.229 28.1833C159.858 27.6919 159.554 27.1806 159.315 26.6493C159.077 26.1048 158.898 25.5604 158.779 25.0157C158.673 24.4579 158.62 23.9399 158.62 23.4619V16.4494C158.62 15.1212 158.859 13.999 159.335 13.0826C159.825 12.1529 160.427 11.4025 161.142 10.8314C161.87 10.247 162.658 9.82865 163.505 9.57632C164.352 9.32398 165.133 9.19779 165.848 9.19779H175.161V14.3775H165.888C165.199 14.3775 164.676 14.5568 164.319 14.9154C163.962 15.2607 163.783 15.772 163.783 16.4494V23.422C163.783 24.126 163.955 24.6571 164.299 25.0157C164.657 25.3743 165.173 25.5536 165.848 25.5536H175.161C175.863 25.5536 176.386 25.3743 176.73 25.0157C177.074 24.6571 177.246 24.1392 177.246 23.4619V0.0935059H182.409V23.4619Z" fill="#E10D45"/>
</svg>
